# xmcd CD database file
#
# Track frame offsets:
#	150
#	17719
#	34695
#	50521
#	68852
#	84137
#	103605
#	119841
#	133004
#	148314
#	166304
#	182864
#	197309
#	214950
#
# Disc length: 3080 seconds
#
# Revision: 0
# Processed by: cddbd v1.5.2PL0 Copyright (c) Steve Scherf et al.
# Submitted via: CDex 1.70beta2
#
DISCID=cb0c060e
DTITLE=Michael Schiefel - Don't Touch My Animals (Vocal)
DYEAR=2006
DGENRE=Jazz
TTITLE0=My Animals
TTITLE1=Aufm Dorf Und Inner Stadt
TTITLE2=Walking
TTITLE3=Deutsch
TTITLE4=Do The Rumba
TTITLE5=Mann Und Mann
TTITLE6=Just A Little Me
TTITLE7=Waiting For You
TTITLE8=Being Lonely
TTITLE9=Be My Toy, Be My Joy
TTITLE10=Matthew
TTITLE11=Im Winter
TTITLE12=Apple Pie Queen
TTITLE13=Watersong
EXTD=YEAR: 2006
EXTT0=
EXTT1=
EXTT2=
EXTT3=
EXTT4=
EXTT5=
EXTT6=
EXTT7=
EXTT8=
EXTT9=
EXTT10=
EXTT11=
EXTT12=
EXTT13=
PLAYORDER=
